<svg width="194" height="24" viewBox="0 0 194 24" fill="none" xmlns="http://www.w3.org/2000/svg">
<path d="M1.22727 18V9.27273H2.52273V10.6364H2.63636C2.81818 10.1705 3.11174 9.80871 3.51705 9.55114C3.92235 9.28977 4.40909 9.15909 4.97727 9.15909C5.55303 9.15909 6.0322 9.28977 6.41477 9.55114C6.80114 9.80871 7.10227 10.1705 7.31818 10.6364H7.40909C7.63258 10.1856 7.9678 9.82765 8.41477 9.5625C8.86174 9.29356 9.39773 9.15909 10.0227 9.15909C10.803 9.15909 11.4413 9.40341 11.9375 9.89205C12.4337 10.3769 12.6818 11.1326 12.6818 12.1591V18H11.3409V12.1591C11.3409 11.5152 11.1648 11.0549 10.8125 10.7784C10.4602 10.5019 10.0455 10.3636 9.56818 10.3636C8.95455 10.3636 8.47917 10.5492 8.14205 10.9205C7.80492 11.2879 7.63636 11.7538 7.63636 12.3182V18H6.27273V12.0227C6.27273 11.5265 6.11174 11.1269 5.78977 10.8239C5.4678 10.517 5.05303 10.3636 4.54545 10.3636C4.19697 10.3636 3.87121 10.4564 3.56818 10.642C3.26894 10.8277 3.02652 11.0852 2.84091 11.4148C2.65909 11.7405 2.56818 12.1174 2.56818 12.5455V18H1.22727ZM17.5417 18.2045C16.9887 18.2045 16.4868 18.1004 16.036 17.892C15.5853 17.6799 15.2273 17.375 14.9622 16.9773C14.697 16.5758 14.5644 16.0909 14.5644 15.5227C14.5644 15.0227 14.6629 14.6174 14.8599 14.3068C15.0569 13.9924 15.3201 13.7462 15.6497 13.5682C15.9792 13.3902 16.3428 13.2576 16.7406 13.1705C17.1421 13.0795 17.5455 13.0076 17.9508 12.9545C18.4811 12.8864 18.911 12.8352 19.2406 12.8011C19.5739 12.7633 19.8163 12.7008 19.9678 12.6136C20.1231 12.5265 20.2008 12.375 20.2008 12.1591V12.1136C20.2008 11.553 20.0474 11.1174 19.7406 10.8068C19.4375 10.4962 18.9773 10.3409 18.3599 10.3409C17.7197 10.3409 17.2178 10.4811 16.8542 10.7614C16.4906 11.0417 16.2349 11.3409 16.0872 11.6591L14.8144 11.2045C15.0417 10.6742 15.3447 10.2614 15.7235 9.96591C16.1061 9.66667 16.5228 9.45833 16.9735 9.34091C17.4281 9.2197 17.875 9.15909 18.3144 9.15909C18.5947 9.15909 18.9167 9.19318 19.2803 9.26136C19.6478 9.32576 20.0019 9.46023 20.3428 9.66477C20.6875 9.86932 20.9735 10.178 21.2008 10.5909C21.4281 11.0038 21.5417 11.5568 21.5417 12.25V18H20.2008V16.8182H20.1326C20.0417 17.0076 19.8902 17.2102 19.6781 17.4261C19.4659 17.642 19.1838 17.8258 18.8315 17.9773C18.4792 18.1288 18.0493 18.2045 17.5417 18.2045ZM17.7463 17C18.2766 17 18.7235 16.8958 19.0872 16.6875C19.4546 16.4792 19.7311 16.2102 19.9167 15.8807C20.1061 15.5511 20.2008 15.2045 20.2008 14.8409V13.6136C20.144 13.6818 20.019 13.7443 19.8258 13.8011C19.6364 13.8542 19.4167 13.9015 19.1667 13.9432C18.9205 13.9811 18.68 14.0152 18.4451 14.0455C18.2141 14.072 18.0266 14.0947 17.8826 14.1136C17.5341 14.1591 17.2084 14.233 16.9053 14.3352C16.6061 14.4337 16.3637 14.5833 16.1781 14.7841C15.9963 14.9811 15.9053 15.25 15.9053 15.5909C15.9053 16.0568 16.0777 16.4091 16.4224 16.6477C16.7709 16.8826 17.2122 17 17.7463 17ZM27.1246 18.1818C26.3973 18.1818 25.7553 17.9981 25.1985 17.6307C24.6416 17.2595 24.206 16.7367 23.8916 16.0625C23.5773 15.3845 23.4201 14.5833 23.4201 13.6591C23.4201 12.7424 23.5773 11.947 23.8916 11.2727C24.206 10.5985 24.6435 10.0777 25.2041 9.71023C25.7648 9.3428 26.4125 9.15909 27.1473 9.15909C27.7155 9.15909 28.1644 9.25379 28.4939 9.44318C28.8273 9.62879 29.081 9.84091 29.2553 10.0795C29.4333 10.3144 29.5716 10.5076 29.6701 10.6591H29.7837V6.36364H31.1246V18H29.8291V16.6591H29.6701C29.5716 16.8182 29.4314 17.0189 29.2496 17.2614C29.0678 17.5 28.8083 17.714 28.4712 17.9034C28.1341 18.089 27.6852 18.1818 27.1246 18.1818ZM27.3064 16.9773C27.8443 16.9773 28.2988 16.8371 28.6701 16.5568C29.0413 16.2727 29.3235 15.8807 29.5166 15.3807C29.7098 14.8769 29.8064 14.2955 29.8064 13.6364C29.8064 12.9848 29.7117 12.4148 29.5223 11.9261C29.3329 11.4337 29.0526 11.0511 28.6814 10.7784C28.3102 10.5019 27.8519 10.3636 27.3064 10.3636C26.7382 10.3636 26.2648 10.5095 25.886 10.8011C25.511 11.089 25.2288 11.4811 25.0394 11.9773C24.8538 12.4697 24.761 13.0227 24.761 13.6364C24.761 14.2576 24.8557 14.822 25.0451 15.3295C25.2382 15.8333 25.5223 16.2348 25.8973 16.5341C26.2761 16.8295 26.7458 16.9773 27.3064 16.9773ZM37.2657 18.1818C36.4248 18.1818 35.6995 17.9962 35.0896 17.625C34.4835 17.25 34.0157 16.7273 33.6862 16.0568C33.3604 15.3826 33.1976 14.5985 33.1976 13.7045C33.1976 12.8106 33.3604 12.0227 33.6862 11.3409C34.0157 10.6553 34.4741 10.1212 35.0612 9.73864C35.6521 9.35227 36.3415 9.15909 37.1294 9.15909C37.5839 9.15909 38.0328 9.23485 38.476 9.38636C38.9191 9.53788 39.3226 9.78409 39.6862 10.125C40.0498 10.4621 40.3396 10.9091 40.5555 11.4659C40.7714 12.0227 40.8794 12.7083 40.8794 13.5227V14.0909H34.1521V12.9318H39.5157C39.5157 12.4394 39.4173 12 39.2203 11.6136C39.0271 11.2273 38.7506 10.9223 38.3907 10.6989C38.0347 10.4754 37.6142 10.3636 37.1294 10.3636C36.5953 10.3636 36.1332 10.4962 35.743 10.7614C35.3566 11.0227 35.0593 11.3636 34.851 11.7841C34.6426 12.2045 34.5385 12.6553 34.5385 13.1364V13.9091C34.5385 14.5682 34.6521 15.1269 34.8794 15.5852C35.1104 16.0398 35.4305 16.3864 35.8396 16.625C36.2487 16.8598 36.7241 16.9773 37.2657 16.9773C37.618 16.9773 37.9362 16.928 38.2203 16.8295C38.5082 16.7273 38.7563 16.5758 38.9646 16.375C39.1729 16.1705 39.3339 15.9167 39.4476 15.6136L40.743 15.9773C40.6066 16.4167 40.3775 16.803 40.0555 17.1364C39.7335 17.4659 39.3358 17.7235 38.8623 17.9091C38.3888 18.0909 37.8566 18.1818 37.2657 18.1818ZM47.281 18V6.36364H48.6219V10.6591H48.7355C48.834 10.5076 48.9704 10.3144 49.1446 10.0795C49.3226 9.84091 49.5764 9.62879 49.906 9.44318C50.2393 9.25379 50.6901 9.15909 51.2582 9.15909C51.9931 9.15909 52.6408 9.3428 53.2014 9.71023C53.762 10.0777 54.1995 10.5985 54.5139 11.2727C54.8283 11.947 54.9855 12.7424 54.9855 13.6591C54.9855 14.5833 54.8283 15.3845 54.5139 16.0625C54.1995 16.7367 53.7639 17.2595 53.2071 17.6307C52.6503 17.9981 52.0082 18.1818 51.281 18.1818C50.7204 18.1818 50.2715 18.089 49.9344 17.9034C49.5973 17.714 49.3378 17.5 49.156 17.2614C48.9741 17.0189 48.834 16.8182 48.7355 16.6591H48.5764V18H47.281ZM48.5991 13.6364C48.5991 14.2955 48.6957 14.8769 48.8889 15.3807C49.0821 15.8807 49.3643 16.2727 49.7355 16.5568C50.1067 16.8371 50.5613 16.9773 51.0991 16.9773C51.6598 16.9773 52.1276 16.8295 52.5026 16.5341C52.8813 16.2348 53.1654 15.8333 53.3548 15.3295C53.548 14.822 53.6446 14.2576 53.6446 13.6364C53.6446 13.0227 53.5499 12.4697 53.3605 11.9773C53.1749 11.4811 52.8927 11.089 52.5139 10.8011C52.1389 10.5095 51.6673 10.3636 51.0991 10.3636C50.5537 10.3636 50.0954 10.5019 49.7241 10.7784C49.3529 11.0511 49.0726 11.4337 48.8832 11.9261C48.6938 12.4148 48.5991 12.9848 48.5991 13.6364ZM57.4278 21.2727C57.2005 21.2727 56.9979 21.2538 56.8198 21.2159C56.6418 21.1818 56.5187 21.1477 56.4505 21.1136L56.7914 19.9318C57.1172 20.0152 57.4051 20.0455 57.6551 20.0227C57.9051 20 58.1266 19.8883 58.3198 19.6875C58.5168 19.4905 58.6967 19.1705 58.8596 18.7273L59.1096 18.0455L55.8823 9.27273H57.3369L59.746 16.2273H59.8369L62.246 9.27273H63.7005L59.996 19.2727C59.8293 19.7235 59.6229 20.0966 59.3766 20.392C59.1304 20.6913 58.8445 20.9129 58.5187 21.0568C58.1967 21.2008 57.8331 21.2727 57.4278 21.2727Z" fill="#F5F0EC"/>
<path d="M91.6245 4.72732C91.8425 4.72732 92.054 4.73699 92.2655 4.7532C92.9514 4.81155 93.6116 4.96395 94.2301 5.19088C95.791 5.76792 97.1146 6.84099 98.0088 8.22524C97.6371 5.34652 95.9064 2.89895 93.4866 1.57305C92.2431 0.889035 90.8169 0.5 89.3009 0.5C88.0221 0.5 86.035 0.77227 84.9389 1.26827C83.2979 1.868 82.2243 2.84379 81 3.94924L86.0735 7.15543C87.4612 5.65771 89.4323 4.72732 91.6245 4.72732Z" fill="#003EDC"/>
<path d="M96.9666 11.9554H96.9634C96.8096 11.9684 96.6558 11.9781 96.5051 11.9846H96.4667C95.8289 12.0008 95.1846 11.9359 94.5597 11.7901C93.7488 11.602 92.9604 11.2811 92.2329 10.8175C91.7521 10.516 91.3002 10.153 90.8836 9.73156C90.765 9.61485 90.6529 9.49162 90.5471 9.36844C89.7683 8.4737 89.2331 7.44604 88.935 6.36328C88.0696 6.77823 87.294 7.35526 86.6466 8.049C85.8998 8.84973 85.3229 9.81261 84.9704 10.8792C84.8999 11.0964 84.8357 11.32 84.7813 11.5502L84.6274 12.4254L84.0153 15.9331L83.8711 16.75L84.4031 16.2897L85.2973 15.5116L85.1531 13.5537C85.121 13.3559 85.105 13.1549 85.105 12.9474V12.9279L90.2907 13.0447C89.4478 13.4337 87.9606 14.7433 87.3805 15.3593L87.3741 15.369C87.2427 15.5084 87.1177 15.6511 86.996 15.8002L86.5536 17.5962L86.5024 17.8036H86.5056L86.3806 18.3093L86.3582 18.4034L85.105 23.4995L89.8323 20.9416L89.8772 20.705L90.0567 19.7519C90.076 19.6612 90.0952 19.5834 90.1144 19.5153C90.1657 19.3208 90.1913 19.2268 90.2234 19.1393C90.2747 18.9772 90.3324 18.8183 90.3869 18.6756C91.4669 15.8326 92.8226 15.1842 92.7328 15.1842C92.8034 15.1259 92.8803 15.0707 92.9572 15.0189C93.6142 14.5553 94.4732 14.2214 95.4026 14.0918C95.5436 14.0723 95.7039 14.0561 95.8705 14.0528L95.9155 14.0496L96.7712 13.0868L97.9025 11.8095L97.8416 11.8225C97.5499 11.8841 97.2583 11.9295 96.9666 11.9554Z" fill="#003EDC"/>
<path d="M107.237 15.9506C107.061 16.4272 106.779 16.7936 106.362 17.0432C105.955 17.2895 105.487 17.4095 104.961 17.4095C104.42 17.4095 103.997 17.2993 103.689 17.0626C103.381 16.8292 103.221 16.5116 103.221 16.1096C103.221 15.2732 103.852 14.8517 105.118 14.8517H107.237V15.9506ZM108.99 9.62597C108.109 8.83173 106.843 8.42969 105.195 8.42969C104.346 8.42969 103.51 8.54317 102.696 8.77009C101.888 9.00026 101.186 9.32119 100.609 9.7329L101.715 11.9114C102.099 11.6066 102.567 11.3635 103.115 11.1787C103.66 11.0037 104.215 10.913 104.782 10.913C105.602 10.913 106.211 11.0945 106.615 11.4608C107.032 11.8271 107.237 12.3523 107.237 13.0299H104.782C103.231 13.0299 102.077 13.3216 101.33 13.8889C100.583 14.4627 100.215 15.257 100.215 16.2554C100.215 16.8779 100.372 17.4419 100.692 17.9282C101.006 18.4242 101.465 18.8132 102.061 19.0953C102.663 19.3676 103.372 19.5135 104.195 19.5135C105.775 19.5135 106.852 19.0109 107.429 18.0125V19.3545H110.317V13.2113C110.317 11.6131 109.878 10.417 108.99 9.62597Z" fill="#F5F0EC"/>
<path d="M134.424 12.9443C134.52 11.8454 134.921 10.9701 135.642 10.2861C136.35 9.60855 137.229 9.27136 138.28 9.27136C139.347 9.27136 140.232 9.60855 140.953 10.2861C141.664 10.9701 142.068 11.8454 142.161 12.9443H134.424ZM143.578 13.5895C143.578 12.5035 143.347 11.5342 142.889 10.6913C142.43 9.84196 141.805 9.17735 141.001 8.70729C140.2 8.22426 139.296 7.98438 138.28 7.98438C137.27 7.98438 136.363 8.22426 135.556 8.70729C134.748 9.17735 134.107 9.84196 133.649 10.6978C133.184 11.5536 132.953 12.5197 132.953 13.5895C132.953 14.669 133.19 15.6383 133.681 16.4941C134.161 17.337 134.834 18.0113 135.697 18.4911C136.565 18.9806 137.556 19.2205 138.677 19.2205C139.546 19.2205 140.344 19.0681 141.071 18.7569C141.799 18.4521 142.408 18.0048 142.889 17.4116L142.062 16.4423C141.648 16.9253 141.151 17.2851 140.587 17.5315C140.02 17.7746 139.395 17.9011 138.716 17.9011C137.517 17.9011 136.52 17.5412 135.729 16.8378C134.947 16.131 134.514 15.2071 134.424 14.053H143.552L143.578 13.5895Z" fill="#F5F0EC"/>
<path d="M151.929 14.3902C151.557 13.9817 151.108 13.7029 150.586 13.5344C150.054 13.3658 149.361 13.1972 148.493 13.0319C147.778 12.9055 147.227 12.7757 146.833 12.6623C146.429 12.5423 146.089 12.3608 145.82 12.1047C145.551 11.8453 145.416 11.5115 145.416 11.0965C145.416 10.5519 145.653 10.1142 146.137 9.7771C146.612 9.44319 147.32 9.27136 148.262 9.27136C149.502 9.27136 150.579 9.58263 151.477 10.218L152.121 9.01849C151.659 8.71376 151.083 8.46745 150.381 8.27618C149.669 8.08168 148.964 7.98438 148.262 7.98438C146.9 7.98438 145.842 8.28262 145.083 8.87263C144.323 9.45615 143.948 10.218 143.948 11.1354C143.948 11.8778 144.137 12.4613 144.515 12.8795C144.894 13.3042 145.352 13.596 145.89 13.7743C146.435 13.9493 147.147 14.1178 148.035 14.2864C148.698 14.3999 149.227 14.5101 149.627 14.6301C150.034 14.75 150.365 14.9251 150.624 15.1553C150.887 15.3887 151.018 15.7096 151.018 16.1083C151.018 16.6854 150.781 17.1327 150.304 17.4439C149.826 17.7551 149.092 17.9141 148.095 17.9141C147.345 17.9141 146.624 17.8038 145.938 17.5704C145.243 17.337 144.676 17.0452 144.217 16.6757L143.551 17.8524C144.009 18.2447 144.644 18.5721 145.448 18.8282C146.256 19.0908 147.108 19.2205 147.993 19.2205C149.4 19.2205 150.506 18.9287 151.3 18.3711C152.095 17.8038 152.493 17.0387 152.493 16.0694C152.493 15.3595 152.31 14.7986 151.929 14.3902Z" fill="#F5F0EC"/>
<path d="M162.937 15.8393C162.578 16.5006 162.098 17.0063 161.473 17.3629C160.848 17.7162 160.162 17.9011 159.396 17.9011C158.617 17.9011 157.922 17.7162 157.316 17.3629C156.701 17.0063 156.21 16.5006 155.861 15.8393C155.505 15.1812 155.332 14.4323 155.332 13.5895C155.332 12.7531 155.505 12.0107 155.861 11.3591C156.21 10.7043 156.701 10.2018 157.316 9.83543C157.922 9.47235 158.617 9.29083 159.396 9.29083C160.162 9.29083 160.848 9.47235 161.473 9.83543C162.098 10.2018 162.578 10.7043 162.937 11.3591C163.29 12.0107 163.463 12.7531 163.463 13.5895C163.463 14.4323 163.29 15.1812 162.937 15.8393ZM164.229 10.6718C163.764 9.82249 163.107 9.1612 162.28 8.6879C161.45 8.22432 160.524 7.98438 159.502 7.98438C158.588 7.98438 157.765 8.18539 157.037 8.57765C156.319 8.96991 155.736 9.53072 155.29 10.2569V8.07515H153.877V23.1852H155.354V17.0387C155.803 17.7487 156.393 18.2933 157.101 18.6596C157.822 19.0357 158.617 19.2205 159.502 19.2205C160.54 19.2205 161.473 18.987 162.293 18.517C163.117 18.0469 163.764 17.3889 164.229 16.533C164.707 15.6772 164.937 14.7014 164.937 13.5895C164.937 12.5035 164.707 11.5277 164.229 10.6718Z" fill="#F5F0EC"/>
<path d="M167.166 12.9443C167.269 11.8454 167.67 10.9701 168.384 10.2861C169.093 9.60855 169.98 9.27136 171.028 9.27136C172.089 9.27136 172.983 9.60855 173.695 10.2861C174.406 10.9701 174.81 11.8454 174.903 12.9443H167.166ZM176.32 13.5895C176.32 12.5035 176.089 11.5342 175.631 10.6913C175.179 9.84196 174.548 9.17735 173.743 8.70729C172.942 8.22426 172.032 7.98438 171.028 7.98438C170.019 7.98438 169.109 8.22426 168.295 8.70729C167.487 9.17735 166.849 9.84196 166.391 10.6978C165.926 11.5536 165.695 12.5197 165.695 13.5895C165.695 14.669 165.939 15.6383 166.423 16.4941C166.904 17.337 167.577 18.0113 168.445 18.4911C169.307 18.9806 170.304 19.2205 171.416 19.2205C172.294 19.2205 173.092 19.0681 173.82 18.7569C174.548 18.4521 175.147 18.0048 175.631 17.4116L174.801 16.4423C174.39 16.9253 173.9 17.2851 173.33 17.5315C172.759 17.7746 172.137 17.9011 171.467 17.9011C170.256 17.9011 169.259 17.5412 168.477 16.8378C167.689 16.131 167.253 15.2071 167.166 14.053H176.294L176.32 13.5895Z" fill="#F5F0EC"/>
<path d="M185.708 16.2737L186.808 17.0323C186.375 17.7455 185.788 18.29 185.045 18.6564C184.295 19.0324 183.455 19.2173 182.532 19.2173C181.449 19.2173 180.484 18.9773 179.638 18.504C178.786 18.0242 178.122 17.3597 177.632 16.4973C177.148 15.635 176.904 14.6657 176.904 13.5862C176.904 12.5164 177.148 11.5471 177.632 10.6946C178.122 9.83872 178.786 9.1741 179.638 8.7008C180.484 8.22426 181.449 7.98438 182.532 7.98438C183.471 7.98438 184.311 8.17563 185.055 8.54196C185.798 8.91152 186.375 9.4529 186.808 10.1661L185.708 10.9247C185.346 10.3801 184.888 9.97485 184.333 9.69281C183.782 9.4205 183.18 9.28758 182.532 9.28758C181.741 9.28758 181.029 9.46261 180.407 9.82245C179.773 10.1823 179.282 10.6848 178.927 11.3397C178.58 12.0042 178.407 12.7466 178.407 13.5862C178.407 14.4421 178.58 15.1941 178.927 15.849C179.282 16.4973 179.773 16.9998 180.407 17.3596C181.029 17.713 181.741 17.8978 182.532 17.8978C183.18 17.8978 183.782 17.7617 184.333 17.4958C184.888 17.2235 185.346 16.8248 185.708 16.2737Z" fill="#F5F0EC"/>
<path d="M193.473 17.4079C193.268 17.5927 193.022 17.7288 192.739 17.8229C192.454 17.9298 192.163 17.9752 191.855 17.9752C191.243 17.9752 190.778 17.797 190.454 17.4566C190.131 17.1194 189.964 16.6169 189.964 15.9588V9.37154H193.284V8.11044H189.964V5.69531H188.496V16.0399C188.496 17.061 188.772 17.8553 189.323 18.4129C189.877 18.977 190.666 19.2558 191.688 19.2558C192.131 19.2558 192.557 19.1909 192.967 19.0548C193.371 18.9186 193.717 18.7273 193.996 18.481L193.473 17.4079Z" fill="#F5F0EC"/>
<path d="M107.237 15.9506C107.061 16.4272 106.779 16.7936 106.362 17.0432C105.955 17.2895 105.487 17.4095 104.961 17.4095C104.42 17.4095 103.997 17.2993 103.689 17.0626C103.381 16.8292 103.221 16.5116 103.221 16.1096C103.221 15.2732 103.852 14.8517 105.118 14.8517H107.237V15.9506ZM108.99 9.62597C108.109 8.83173 106.843 8.42969 105.195 8.42969C104.346 8.42969 103.51 8.54317 102.696 8.77009C101.888 9.00026 101.186 9.32119 100.609 9.7329L101.715 11.9114C102.099 11.6066 102.567 11.3635 103.115 11.1787C103.66 11.0037 104.215 10.913 104.782 10.913C105.602 10.913 106.211 11.0945 106.615 11.4608C107.032 11.8271 107.237 12.3523 107.237 13.0299H104.782C103.231 13.0299 102.077 13.3216 101.33 13.8889C100.583 14.4627 100.215 15.257 100.215 16.2554C100.215 16.8779 100.372 17.4419 100.692 17.9282C101.006 18.4242 101.465 18.8132 102.061 19.0953C102.663 19.3676 103.372 19.5135 104.195 19.5135C105.775 19.5135 106.852 19.0109 107.429 18.0125V19.3545H110.317V13.2113C110.317 11.6131 109.878 10.417 108.99 9.62597Z" fill="#F5F0EC"/>
<path d="M126.315 13.1756H122.447V5.80699H126.315C127.754 5.80699 128.853 6.12468 129.61 6.76655C130.369 7.39871 130.748 8.30639 130.748 9.49937C130.748 10.6664 130.369 11.5644 129.61 12.2128C128.853 12.8514 127.754 13.1756 126.315 13.1756ZM118.771 16.1353C118.258 16.6735 117.61 16.949 116.835 16.949C116.043 16.949 115.393 16.6735 114.88 16.1353C114.357 15.6004 114.101 14.8808 114.101 13.9698C114.101 13.0654 114.357 12.3425 114.88 11.8011C115.393 11.2597 116.043 10.9874 116.835 10.9874C117.61 10.9874 118.258 11.2597 118.771 11.8011C119.283 12.3425 119.537 13.0654 119.537 13.9698C119.537 14.8808 119.283 15.6004 118.771 16.1353ZM128.972 14.1222C130.03 13.7721 130.85 13.2015 131.427 12.4105C131.998 11.6163 132.289 10.6535 132.289 9.49937C132.289 7.93358 131.76 6.70173 130.709 5.80699C129.655 4.91226 128.203 4.46484 126.354 4.46484L119.479 4.51352V9.72953C118.716 8.86072 117.655 8.42631 116.3 8.42631C115.296 8.42631 114.386 8.65652 113.582 9.11361C112.768 9.56098 112.136 10.2061 111.668 11.049C111.207 11.8918 110.982 12.8611 110.982 13.9698C110.982 15.0753 111.207 16.0511 111.668 16.8874C112.136 17.7271 112.768 18.3754 113.582 18.826C114.386 19.2831 115.296 19.5101 116.3 19.5101C117.745 19.5101 118.854 19.0465 119.62 18.1096V19.3512H122.565V14.495H126.354C126.757 14.495 127.142 14.4755 127.517 14.4334L130.834 19.1567H132.52L128.972 14.1222Z" fill="#F5F0EC"/>
<path d="M134.424 12.9443C134.52 11.8454 134.921 10.9701 135.642 10.2861C136.35 9.60855 137.229 9.27136 138.28 9.27136C139.347 9.27136 140.232 9.60855 140.953 10.2861C141.664 10.9701 142.068 11.8454 142.161 12.9443H134.424ZM143.578 13.5895C143.578 12.5035 143.347 11.5342 142.889 10.6913C142.43 9.84196 141.805 9.17735 141.001 8.70729C140.2 8.22426 139.296 7.98438 138.28 7.98438C137.27 7.98438 136.363 8.22426 135.556 8.70729C134.748 9.17735 134.107 9.84196 133.649 10.6978C133.184 11.5536 132.953 12.5197 132.953 13.5895C132.953 14.669 133.19 15.6383 133.681 16.4941C134.161 17.337 134.834 18.0113 135.697 18.4911C136.565 18.9806 137.556 19.2205 138.677 19.2205C139.546 19.2205 140.344 19.0681 141.071 18.7569C141.799 18.4521 142.408 18.0048 142.889 17.4116L142.062 16.4423C141.648 16.9253 141.151 17.2851 140.587 17.5315C140.02 17.7746 139.395 17.9011 138.716 17.9011C137.517 17.9011 136.52 17.5412 135.729 16.8378C134.947 16.131 134.514 15.2071 134.424 14.053H143.552L143.578 13.5895Z" fill="#F5F0EC"/>
<path d="M151.929 14.3869C152.31 14.7954 152.49 15.353 152.49 16.0662C152.49 17.0322 152.095 17.8006 151.297 18.3679C150.506 18.9287 149.4 19.2173 147.993 19.2173C147.108 19.2173 146.256 19.0875 145.448 18.8249C144.64 18.5688 144.009 18.2414 143.551 17.8492L144.214 16.6724C144.673 17.042 145.243 17.337 145.938 17.5704C146.624 17.8006 147.345 17.9141 148.095 17.9141C149.092 17.9141 149.826 17.7519 150.3 17.4407C150.784 17.1295 151.022 16.6821 151.022 16.1051C151.022 15.7064 150.887 15.3854 150.624 15.1553C150.365 14.9219 150.031 14.7468 149.631 14.6268C149.227 14.5069 148.698 14.3934 148.031 14.2832C147.147 14.1146 146.435 13.9461 145.89 13.771C145.352 13.596 144.894 13.301 144.515 12.8763C144.137 12.4613 143.945 11.8778 143.945 11.1322C143.945 10.2147 144.326 9.4529 145.086 8.86938C145.842 8.27937 146.903 7.98438 148.262 7.98438C148.964 7.98438 149.669 8.07843 150.381 8.26969C151.086 8.4642 151.659 8.71052 152.121 9.01525L151.48 10.2148C150.579 9.58262 149.502 9.27136 148.262 9.27136C147.323 9.27136 146.612 9.43671 146.137 9.77385C145.653 10.111 145.416 10.5487 145.416 11.0933C145.416 11.5082 145.551 11.8453 145.82 12.1014C146.089 12.3575 146.429 12.5391 146.833 12.659C147.227 12.7725 147.781 12.899 148.493 13.0286C149.361 13.1972 150.057 13.3626 150.586 13.5311C151.108 13.6997 151.557 13.9785 151.929 14.3869Z" fill="#F5F0EC"/>
<path d="M162.937 15.8393C162.578 16.5006 162.098 17.0063 161.473 17.3629C160.848 17.7162 160.162 17.9011 159.396 17.9011C158.617 17.9011 157.922 17.7162 157.316 17.3629C156.701 17.0063 156.21 16.5006 155.861 15.8393C155.505 15.1812 155.332 14.4323 155.332 13.5895C155.332 12.7531 155.505 12.0107 155.861 11.3591C156.21 10.7043 156.701 10.2018 157.316 9.83543C157.922 9.47235 158.617 9.29083 159.396 9.29083C160.162 9.29083 160.848 9.47235 161.473 9.83543C162.098 10.2018 162.578 10.7043 162.937 11.3591C163.29 12.0107 163.463 12.7531 163.463 13.5895C163.463 14.4323 163.29 15.1812 162.937 15.8393ZM164.229 10.6718C163.764 9.82249 163.107 9.1612 162.28 8.6879C161.45 8.22432 160.524 7.98438 159.502 7.98438C158.588 7.98438 157.765 8.18539 157.037 8.57765C156.319 8.96991 155.736 9.53072 155.29 10.2569V8.07515H153.877V23.1852H155.354V17.0387C155.803 17.7487 156.393 18.2933 157.101 18.6596C157.822 19.0357 158.617 19.2205 159.502 19.2205C160.54 19.2205 161.473 18.987 162.293 18.517C163.117 18.0469 163.764 17.3889 164.229 16.533C164.707 15.6772 164.937 14.7014 164.937 13.5895C164.937 12.5035 164.707 11.5277 164.229 10.6718Z" fill="#F5F0EC"/>
<path d="M167.166 12.9443C167.269 11.8454 167.67 10.9701 168.384 10.2861C169.093 9.60855 169.98 9.27136 171.028 9.27136C172.089 9.27136 172.983 9.60855 173.695 10.2861C174.406 10.9701 174.81 11.8454 174.903 12.9443H167.166ZM176.32 13.5895C176.32 12.5035 176.089 11.5342 175.631 10.6913C175.179 9.84196 174.548 9.17735 173.743 8.70729C172.942 8.22426 172.032 7.98438 171.028 7.98438C170.019 7.98438 169.109 8.22426 168.295 8.70729C167.487 9.17735 166.849 9.84196 166.391 10.6978C165.926 11.5536 165.695 12.5197 165.695 13.5895C165.695 14.669 165.939 15.6383 166.423 16.4941C166.904 17.337 167.577 18.0113 168.445 18.4911C169.307 18.9806 170.304 19.2205 171.416 19.2205C172.294 19.2205 173.092 19.0681 173.82 18.7569C174.548 18.4521 175.147 18.0048 175.631 17.4116L174.801 16.4423C174.39 16.9253 173.9 17.2851 173.33 17.5315C172.759 17.7746 172.137 17.9011 171.467 17.9011C170.256 17.9011 169.259 17.5412 168.477 16.8378C167.689 16.131 167.253 15.2071 167.166 14.053H176.294L176.32 13.5895Z" fill="#F5F0EC"/>
<path d="M193.999 18.4777C193.723 18.7273 193.374 18.9186 192.97 19.0548C192.56 19.1909 192.134 19.2558 191.691 19.2558C190.672 19.2558 189.881 18.9737 189.326 18.4161C188.775 17.8553 188.496 17.0643 188.496 16.0399V5.69531H189.967V8.11044H193.288V9.37154H189.967V15.9621C189.967 16.6169 190.134 17.1194 190.458 17.4566C190.781 17.8002 191.249 17.9752 191.858 17.9752C192.166 17.9752 192.457 17.9266 192.743 17.8229C193.028 17.7288 193.272 17.5927 193.477 17.4079L193.999 18.4777Z" fill="#F5F0EC"/>
</svg>
